<?xml version="1.0" encoding="UTF-8" standalone="no"?>
<!-- Created with Inkscape (http://www.inkscape.org/) -->

<svg
   xmlns:dc="http://purl.org/dc/elements/1.1/"
   xmlns:cc="http://creativecommons.org/ns#"
   xmlns:rdf="http://www.w3.org/1999/02/22-rdf-syntax-ns#"
   xmlns:svg="http://www.w3.org/2000/svg"
   xmlns="http://www.w3.org/2000/svg"
   xmlns:sodipodi="http://sodipodi.sourceforge.net/DTD/sodipodi-0.dtd"
   xmlns:inkscape="http://www.inkscape.org/namespaces/inkscape"
   width="210mm"
   height="297mm"
   viewBox="0 0 744.09448819 1052.3622047"
   id="svg2"
   version="1.1"
   inkscape:version="0.91 r13725"
   sodipodi:docname="gravure-bart-simpson-hands-ina-pocket-catoon-3.svg">
  <title
     id="title3349">Bart Simpson hands ina pocker</title>
  <defs
     id="defs4" />
  <sodipodi:namedview
     id="base"
     pagecolor="#ffffff"
     bordercolor="#666666"
     borderopacity="1.0"
     inkscape:pageopacity="0.0"
     inkscape:pageshadow="2"
     inkscape:zoom="0.35"
     inkscape:cx="429.64284"
     inkscape:cy="288.57143"
     inkscape:document-units="px"
     inkscape:current-layer="layer1"
     showgrid="false"
     inkscape:window-width="1536"
     inkscape:window-height="877"
     inkscape:window-x="-8"
     inkscape:window-y="-8"
     inkscape:window-maximized="1" />
  <metadata
     id="metadata7">
    <rdf:RDF>
      <cc:Work
         rdf:about="">
        <dc:format>image/svg+xml</dc:format>
        <dc:type
           rdf:resource="http://purl.org/dc/dcmitype/StillImage" />
        <dc:title>Bart Simpson hands ina pocker</dc:title>
      </cc:Work>
    </rdf:RDF>
  </metadata>
  <g
     inkscape:label="Calque 1"
     inkscape:groupmode="layer"
     id="layer1">
    <path
       style="fill:#000000"
       d="m 356.23661,1036.3039 c -49.86636,-0.1662 -132.16928,-0.1995 -182.8954,-0.074 -78.09311,0.1933 -92.22553,0.149 -92.204649,-0.2887 0.0136,-0.2843 0.730278,-4.794 1.592702,-10.0216 l 1.568056,-9.5046 -2.118163,-0.7323 c -8.298391,-2.8686 -18.298343,-10.7517 -27.167928,-21.41695 -9.783433,-11.76408 -20.960761,-30.80996 -29.056169,-49.51102 -3.082393,-7.12056 -2.448993,-6.50459 -7.274419,-7.07445 -4.453026,-0.52589 -8.402735,-4.42715 -10.0683131,-9.94477 -1.1386842,-3.77218 -1.1121823,-14.49532 0.051596,-20.86117 2.4971165,-13.65949 8.8970205,-32.94755 16.6994875,-50.32897 l 2.513639,-5.59959 19.945312,-23.5252 C 58.792298,814.48182 68.29283,803.35744 68.934679,802.6998 l 1.166995,-1.19563 -2.706182,-8.01904 c -1.488393,-4.41042 -3.023004,-8.8864 -3.410226,-9.94656 l -0.704055,-1.92758 -2.989072,-0.65414 C 51.20901,778.96911 42.530596,774.99349 35.674247,769.6793 21.129986,758.40641 14.535269,743.45135 13.907187,720.31751 c -0.275047,-10.13095 0.211748,-17.24956 1.838187,-26.88074 2.701217,-15.99564 8.734015,-35.60514 14.44527,-46.95415 1.377651,-2.73759 4.366723,-7.85285 6.642391,-11.36731 7.562213,-11.67876 14.558648,-19.50058 24.044041,-26.88055 14.589034,-11.35073 29.408609,-16.05668 47.071664,-14.94747 5.72423,0.35946 11.34798,1.43093 17.24686,3.28604 3.83555,1.20618 4.50838,1.32139 4.7018,0.80509 0.88924,-2.37386 21.41075,-93.42252 21.10541,-93.63933 -0.21352,-0.15163 -1.80497,-0.63715 -3.53656,-1.07899 -12.44808,-3.17635 -22.50126,-13.08755 -26.41774,-26.04472 -2.67356,-8.84509 -3.10323,-19.84912 -0.99199,-25.40493 4.92872,-12.97012 17.63905,-21.83928 35.70617,-24.91542 2.35897,-0.40166 2.7785,-0.604 2.99553,-1.44487 0.1388,-0.53777 2.32414,-11.46474 4.85632,-24.28215 2.79976,-14.17191 7.62356,-36.1193 12.30945,-56.00569 5.48728,-23.28739 8.10741,-35.35234 9.10163,-41.91029 0.76786,-5.06493 6.69944,-44.89852 13.18127,-88.51904 l 11.78515,-79.31008 2.90079,-35.938547 2.9008,-35.938558 -1.68609,-9.699698 c -0.92735,-5.334824 -1.68609,-10.184164 -1.68609,-10.776285 0,-1.496507 3.71769,-6.41831 5.61581,-7.434704 7.04288,-3.771257 16.8369,-1.798594 26.97767,5.433716 4.14642,2.957186 9.98015,8.502429 14.62301,13.899894 2.14178,2.48987 4.03381,4.570796 4.20451,4.624285 0.17071,0.05347 0.71277,-1.130517 1.20458,-2.631136 2.66499,-8.131511 8.63312,-21.850322 11.88647,-27.32316 3.59871,-6.053839 4.80214,-6.602351 9.99284,-4.554698 6.44699,2.543241 14.28914,8.047367 26.75492,18.778353 l 7.16454,6.167473 0.39829,-1.28107 c 4.72103,-15.184679 12.38587,-27.938768 19.0817,-31.751499 6.74181,-3.838912 13.33054,-1.770275 19.88104,6.241958 2.33708,2.858582 16.71225,24.948287 16.71225,25.680971 0,2.124854 4.34534,-2.585735 13.8223,-14.984089 11.86798,-15.526448 15.3529,-19.61163 17.4939,-20.507056 1.82053,-0.761403 9.33309,3.171113 14.82904,7.762373 5.39577,4.507615 8.66148,8.957774 15.91587,21.688518 1.38943,2.438308 3.12383,4.933196 3.85415,5.544178 1.27977,1.070605 2.99121,1.413239 4.11197,0.823225 0.28849,-0.151891 1.55353,-2.038324 2.81117,-4.192097 4.57294,-7.83119 9.24622,-13.780715 13.71045,-17.454718 3.42823,-2.821401 5.72826,-3.762368 8.65868,-3.542322 6.10816,0.458657 10.65988,5.470688 16.82195,18.523073 6.78346,14.368625 9.39364,18.069551 13.62825,19.323265 2.47462,0.732661 3.82428,0.18278 5.51721,-2.247905 2.58329,-3.709058 8.6618,-10.621064 12.64886,-14.38318 4.16327,-3.928461 7.36958,-6.045858 10.1356,-6.693479 2.63211,-0.616265 6.2436,0.599355 9.42807,3.173476 5.7414,4.640948 8.40098,9.148333 15.07814,25.553956 1.86939,4.593078 4.04144,9.435167 4.82679,10.760211 l 1.42791,2.409162 3.24407,-5.040298 c 4.29877,-6.679124 7.55641,-10.378577 12.57675,-14.282559 3.18564,-2.477195 5.03701,-3.570251 7.95813,-4.698457 3.58139,-1.383221 4.06512,-1.47025 8.17193,-1.47025 4.02903,0 4.62368,0.101268 7.72076,1.315573 l 3.35551,1.315562 0.57536,6.389911 c 0.70397,7.817773 1.28823,11.427048 2.80862,17.349859 1.60193,6.240637 3.27789,9.633206 5.75809,11.656044 3.17678,2.590912 4.59291,2.289307 8.00608,-1.705046 5.32141,-6.227565 11.99443,-11.907141 17.10367,-14.55734 9.73254,-5.048364 17.86103,-3.296376 23.03284,4.964403 0.8502,1.358007 1.32623,2.834951 1.46807,4.554814 0.8212,9.957693 3.74854,18.993528 7.07657,21.843368 2.16633,1.85505 2.32227,1.82158 7.86396,-1.68801 9.3364,-5.912752 19.64419,-10.590876 26.33833,-11.953447 10.46022,-2.129147 16.20278,1.635994 16.20278,10.623427 0,2.82813 -0.58825,4.31246 -19.54699,49.32352 -10.75083,25.52423 -23.09485,55.59054 -27.43113,66.81407 -7.36801,19.07036 -8.56793,22.63526 -18.3275,54.44998 -10.24208,33.38784 -10.42722,34.0627 -9.61098,35.03547 3.46767,4.13256 6.98408,11.71078 7.9486,17.12991 1.9289,10.83769 -2.24145,23.3058 -11.25558,33.65098 l -2.66699,3.06081 1.21291,3.26937 c 1.61828,4.36199 3.4344,11.77007 4.05953,16.5589 3.3369,25.56193 -8.68811,51.47524 -32.98807,71.08771 l -5.83952,4.71305 -8.67009,26.68359 -8.67009,26.68355 -3.92133,20.29736 -3.92135,20.29736 0.15339,11.27632 c 0.14746,10.83747 0.11181,11.3714 -0.91605,13.71951 -5.24102,11.97297 -22.88195,20.32044 -49.93709,23.62966 -17.89465,2.18877 -28.35377,2.15599 -53.60816,-0.16783 -19.02141,-1.7503 -46.38337,-5.31317 -73.31261,-9.54619 -6.59272,-1.03633 -12.0273,-1.8427 -12.07685,-1.79192 -0.0495,0.0507 -0.545,1.28039 -1.10099,2.73249 -1.836,4.79513 -7.58157,11.32927 -15.03737,17.10124 l -3.65169,2.827 6.69011,6.75786 c 3.67957,3.71686 9.31976,9.63335 12.53379,13.14781 21.56917,23.5853 35.62892,38.62847 38.11658,40.78266 1.52709,1.32234 8.56773,19.45265 8.50131,21.89165 -0.0567,2.08141 -1.6535,4.79137 -4.5629,7.74362 -2.15476,2.18652 -8.97247,7.29014 -10.98275,8.22153 l -1.25332,0.58069 5.62726,9.62982 c 3.09502,5.2964 10.13749,18.6438 15.64989,29.6609 l 10.02257,20.03107 3.04234,1.69655 c 18.25684,10.18082 45.95362,41.4191 74.39882,83.91189 2.81479,4.20487 5.02145,7.76701 4.90366,7.91593 -0.11776,0.14889 0.73274,3.98178 1.89,8.51753 2.91685,11.43241 3.73621,16.80403 3.75198,24.59744 0.0154,7.48878 -0.67295,10.77875 -3.04306,14.54944 -3.10574,4.94106 -8.77648,6.81984 -15.65926,5.18816 -1.29862,-0.30785 -2.36112,-0.5619 -2.36112,-0.56453 0,-0.003 0.0714,2.06758 0.15854,4.60043 0.22428,6.51568 -1.04067,11.84171 -4.57534,19.26442 -1.6926,3.5544 -6.98549,11.81096 -9.583,14.94882 -1.16231,1.40408 -2.11327,2.63355 -2.11327,2.73214 0,0.0986 1.53074,2.16535 3.40164,4.59276 4.29348,5.57068 11.47559,16.6824 15.36465,23.77121 7.52678,13.71974 11.56861,26.82804 10.23032,33.17894 -0.3531,1.6755 -0.94582,2.2599 -9.03564,8.9085 l -8.65778,7.1153 -33.6691,-0.048 c -18.51801,-0.027 -74.46884,-0.1844 -124.3352,-0.3506 z m 112.07003,-4.4853 37.75749,-0.4047 8.41728,-6.8036 c 4.6295,-3.7421 8.34811,-6.9767 8.26361,-7.1882 -0.11145,-0.2788 -18.78645,-37.65093 -25.62147,-51.27325 -0.41433,-0.82576 -0.74083,-0.66195 -7.05012,3.53727 -3.63863,2.42173 -6.97553,4.6425 -7.41534,4.93504 -0.71152,0.47331 -0.93451,0.37674 -2.02448,-0.87677 l -1.22483,-1.40864 1.91506,-1.7208 c 12.90181,-11.59314 22.61607,-25.71743 25.74262,-37.42916 0.71768,-2.6885 1.19762,-12.32197 0.63504,-12.74874 -0.10695,-0.0811 -10.25907,1.10327 -22.56032,2.632 -25.95488,3.2256 -78.9932,9.61878 -87.05868,10.49401 -4.25154,0.46134 -7.36761,0.54129 -13.46764,0.34554 -4.36496,-0.1401 -24.98129,-0.12813 -45.81404,0.0267 l -37.87774,0.2813 0,6.29839 c 0,8.25835 -0.45575,8.67933 -3.34405,3.0891 -8.34116,-16.14415 -18.76422,-26.37924 -29.33013,-28.80113 -5.15187,-1.18093 -5.67815,-1.06388 -18.70673,4.16058 -6.5279,2.61769 -15.44024,6.16642 -19.8052,7.88605 -5.24403,2.06598 -9.64965,4.13262 -12.98694,6.09207 -13.30184,7.81008 -38.11388,26.10142 -72.09594,53.14894 -7.20765,5.73683 -13.36951,10.4306 -13.69301,10.4306 -0.3235,0 -1.53704,-0.75556 -2.69676,-1.67898 -1.85823,-1.47964 -2.04696,-1.78087 -1.58963,-2.53717 0.28541,-0.47203 5.64291,-5.9917 11.90554,-12.26599 l 11.3866,-11.4078 -6.95843,-13.9639 -6.95843,-13.96392 -5.22338,-0.11494 c -2.87284,-0.0632 -25.49887,-0.57062 -50.280051,-1.12763 l -45.056701,-1.01268 0.25969,1.12762 c 2.190931,9.51386 7.115917,22.34815 12.029383,31.34805 10.592282,19.40168 24.247643,33.6652 41.406125,43.2501 2.170923,1.2127 4.185773,2.2671 4.477452,2.3431 0.494322,0.1287 0.08717,6.139 -0.812515,11.9955 l -0.266282,1.7333 81.683529,0.247 c 44.92595,0.1358 109.05113,0.5399 142.5004,0.8979 l 60.81686,0.6508 14.40337,-7.6256 c 7.92187,-4.1941 14.55917,-7.577 14.74959,-7.5176 0.19041,0.059 -2.87906,3.1527 -6.82104,6.8739 -3.94199,3.7212 -7.62479,7.2523 -8.18401,7.8469 l -1.01675,1.0812 19.91675,-0.2384 c 10.95422,-0.1311 36.90762,-0.4206 57.67425,-0.6432 z M 162.44857,960.15801 c 14.07357,-12.76043 31.4219,-25.70378 45.56093,-33.99236 12.93231,-7.58118 26.05819,-12.74754 36.1204,-14.21711 1.43481,-0.20955 2.69988,-0.45222 2.81129,-0.53927 0.11145,-0.0871 -1.00413,-3.10433 -2.47898,-6.70501 -1.47484,-3.60067 -9.37958,-24.71361 -17.56608,-46.91765 -12.73949,-34.55295 -17.21828,-47.44005 -31.07809,-89.42293 -8.90643,-26.97857 -16.38424,-49.20831 -16.61735,-49.39945 -0.72627,-0.59546 -7.67265,-0.31348 -12.95404,0.52585 -13.31243,2.11563 -35.95756,8.14755 -64.2118,17.10399 -9.295328,2.94657 -15.276567,4.92418 -34.270334,11.33092 -0.859765,0.29003 -1.563213,0.66523 -1.563213,0.83382 0,0.16857 2.363005,9.84985 5.251107,21.51392 l 5.251107,21.2074 18.076811,42.09823 18.076812,42.09823 22.72661,44.06197 c 12.49964,24.23411 22.74903,44.06632 22.77642,44.07159 0.0274,0.006 1.86719,-1.63819 4.0884,-3.65214 z M 130.29623,930.0848 c -6.62451,-10.50148 -26.18645,-51.6949 -46.456983,-97.82885 -2.768813,-6.30158 -5.774711,-13.12213 -6.679782,-15.15676 l -1.645596,-3.69934 -3.920488,2.88215 c -14.134859,10.39123 -23.458205,20.12153 -31.880317,33.2717 -13.399616,20.92207 -20.230543,43.95417 -20.985696,70.75829 l -0.283266,10.05471 3.55689,0.0248 c 1.956286,0.0135 25.634204,0.83746 52.61759,1.83086 26.983388,0.99338 51.123018,1.82797 53.643638,1.8547 l 4.58294,0.0485 -2.54893,-4.04069 z m 202.17078,-4.40201 c 31.10601,-0.96627 32.01243,-0.99904 52.62883,-1.90322 80.72751,-3.54041 130.87975,-9.43023 140.62855,-16.51517 l 1.3828,-1.00491 -0.33209,-6.08243 c -0.84153,-15.41642 -3.78483,-29.0023 -8.6872,-40.09936 -2.08849,-4.7276 -6.57456,-12.14395 -9.48084,-15.6737 -1.15763,-1.40601 -2.39896,-3.14835 -2.75851,-3.87191 -1.93501,-3.89439 -9.07007,-14.09742 -13.53772,-19.35877 -9.19445,-10.82799 -18.37496,-19.39479 -32.49276,-30.32068 -21.68453,-16.78193 -41.89235,-29.11356 -73.50132,-44.85364 -0.41517,-0.20673 -8.53418,-15.20565 -18.04226,-33.33094 l -17.28741,-32.95505 -12.35855,-15.90896 c -6.79722,-8.74994 -12.50516,-16.04063 -12.68432,-16.20155 -0.17917,-0.16095 -1.87853,0.22376 -3.77637,0.85486 -3.99565,1.32876 -10.39949,2.70755 -16.91588,3.64214 -5.80918,0.83317 -28.29199,0.94973 -36.07404,0.18704 -23.49786,-2.30297 -49.42058,-7.51342 -74.99485,-15.07389 -3.54979,-1.0494 -6.54528,-1.83679 -6.65667,-1.74978 -0.11132,0.0871 0.6508,1.14388 1.69371,2.34852 8.28155,9.56577 17.82571,23.25198 23.70309,33.98989 7.92598,14.48067 11.53897,26.03555 11.50603,36.79795 -0.0256,8.37067 -1.65745,13.82367 -5.74633,19.20221 -4.0185,5.28596 -11.75178,10.41537 -19.48862,12.92656 -1.8518,0.60103 -3.42912,1.12305 -3.50515,1.15995 -0.076,0.0368 3.23124,10.872 7.34949,24.07791 l 7.48772,24.01076 23.59605,59.20063 c 12.97781,32.56036 23.63121,59.21884 23.67419,59.24109 0.043,0.0222 1.59324,-0.0886 3.44505,-0.24624 1.8518,-0.15767 5.28419,-0.13306 7.62753,0.0547 11.73469,0.94014 20.17801,5.67901 25.47548,14.29832 l 2.49004,4.05147 2.92519,0.0157 c 1.60886,0.009 16.32707,-0.4006 32.70714,-0.90943 z M 62.35368,774.84757 c 4.86e-4,-0.52119 -5.360052,-23.57749 -5.508757,-23.69371 -0.127908,-0.0999 -12.5226,4.27899 -14.813226,5.23337 -0.462952,0.1929 -0.841724,0.20587 -0.841724,0.0289 0,-0.27067 17.464462,-11.60378 20.323816,-13.18863 0.512326,-0.28397 18.091792,-5.96724 39.065461,-12.62951 l 38.13395,-12.1132 26.71726,-5.21416 26.71727,-5.21421 5.44722,0.69628 c 2.99598,0.38293 5.77189,0.8382 6.1687,1.01174 0.39682,0.17354 0.61292,0.32066 0.48023,0.32694 -0.59755,0.0282 -13.61985,3.01269 -13.81654,3.16639 -0.22212,0.17358 4.11607,17.95576 4.44284,18.21113 0.50285,0.39298 8.28484,-4.3351 12.315,-7.48217 5.32916,-4.16144 8.13297,-7.91398 8.48875,-11.36108 0.21886,-2.12047 -1.94121,-12.02855 -4.03268,-18.49761 -9.93797,-30.73886 -36.07877,-60.45431 -71.63296,-81.42847 -10.53451,-6.21453 -15.64815,-8.44604 -23.74995,-10.36407 -3.49876,-0.82828 -5.06914,-0.97897 -10.37559,-0.99547 -9.216573,-0.0285 -15.228017,1.47288 -23.805911,5.94611 -18.297554,9.54191 -35.201191,30.13546 -49.053525,59.76153 -6.380904,13.64689 -7.14838,17.43025 -7.554431,37.24055 -0.273966,13.36569 0.0936,20.16906 1.57301,29.11896 3.42239,20.70354 12.021589,34.64366 24.377214,39.51776 3.768384,1.48656 10.93376,2.74651 10.934573,1.92269 z m 373.60777,-12.40394 c -0.12718,-0.36179 -4.45606,-9.53789 -9.61975,-20.39134 -17.24456,-36.24613 -21.19485,-44.54102 -21.24002,-44.60029 -0.10113,-0.13276 -27.16735,4.20945 -27.4033,4.39626 -0.14086,0.11158 3.14338,9.14151 7.29832,20.06664 l 7.55444,19.8639 21.40394,10.62612 c 11.77216,5.84437 21.59152,10.64195 21.82076,10.66131 0.22928,0.0196 0.31278,-0.26083 0.18561,-0.6226 z m -15.76551,-57.59531 c 6.70217,-4.38514 9.3249,-11.32333 6.98086,-18.46744 -1.51887,-4.62916 -6.26645,-11.4426 -11.49512,-16.49699 -0.96238,-0.93029 -12.0643,-12.8127 -24.67095,-26.40536 l -22.92117,-24.71392 -2.19883,0.003 c -1.20935,0.003 -8.04281,0.3371 -15.18547,0.74477 -7.14267,0.40764 -13.45908,0.74434 -14.03647,0.74818 -0.66539,0.005 -1.171,0.31672 -1.38077,0.85276 -0.18203,0.46514 -2.36105,4.87825 -4.84229,9.80686 -2.48122,4.92861 -4.51132,9.01357 -4.51132,9.07769 0,0.0641 1.73273,1.09151 3.85049,2.28308 2.11777,1.1916 4.69834,3.02671 5.7346,4.078 6.27358,6.36477 18.08043,23.95296 32.22849,48.00961 l 3.01557,5.1275 1.51692,-0.32732 c 4.45987,-0.96233 42.82228,-8.21641 42.94488,-8.1206 0.0795,0.0621 -0.82443,1.24183 -2.00881,2.62152 l -2.15343,2.50852 3.24143,5.08265 c 1.78278,2.79543 3.3233,5.08261 3.42344,5.08261 0.10004,0 1.21064,-0.67304 2.46795,-1.49565 z m -114.463,-59.57261 c 4.75281,-0.50567 11.77994,-1.76252 12.35141,-2.20914 0.14217,-0.11112 1.29498,-3.80617 2.56185,-8.2113 3.1483,-10.94731 6.67783,-22.18859 7.15476,-22.7874 0.32392,-0.40666 0.89917,-0.39512 3.23191,0.0649 7.4891,1.47686 18.03609,1.81684 24.62278,0.7937 8.63833,-1.3418 15.94513,-5.50667 19.43214,-11.07631 2.35692,-3.76456 3.26338,-6.56652 3.60405,-11.14054 0.26184,-3.51536 0.21343,-3.82752 -0.62421,-4.0244 -0.49944,-0.11739 -17.24962,-4.01787 -37.22262,-8.66769 l -36.31452,-8.45423 -33.17178,-11.87125 c -18.24446,-6.52921 -34.04489,-12.27532 -35.11206,-12.76914 -1.06717,-0.49384 -8.53905,-4.28801 -16.60418,-8.43145 -9.39431,-4.82638 -14.83022,-7.40362 -15.12678,-7.17185 -0.25461,0.19896 -2.65923,3.76847 -5.34361,7.9322 -5.47806,8.49709 -5.49331,8.50268 -5.49976,2.01482 -0.0129,-13.00572 5.94084,-22.97579 16.10368,-26.96697 3.2597,-1.28015 10.00461,-2.73514 11.48583,-2.4777 0.50676,0.0881 -1.10305,2.03278 -5.3255,6.43329 -3.3285,3.46885 -5.96801,6.36597 -5.86558,6.43799 0.27458,0.19312 45.12486,22.04496 53.8163,26.22024 l 7.45531,3.58147 42.56737,11.12826 c 49.81011,13.02173 74.41177,18.60903 104.5913,23.75373 51.51349,8.78154 93.37193,10.69378 119.29907,5.45004 13.15818,-2.66126 22.19853,-7.02557 27.58173,-13.31526 4.13563,-4.83202 4.00105,-4.24934 8.99139,-38.92951 l 4.51633,-31.38574 7.92647,-23.29799 c 4.35958,-12.81388 7.8803,-23.33407 7.82384,-23.37821 -0.0566,-0.0441 -5.152,0.87809 -11.32332,2.04936 -10.31019,1.95678 -11.25716,2.2046 -11.67056,3.05438 -0.95934,1.97185 -4.39883,7.00951 -6.20445,9.08732 -5.835,6.71474 -15.1461,12.15782 -24.98681,14.60681 -5.77988,1.4384 -9.81965,1.94275 -17.31794,2.16208 -8.33682,0.24383 -14.46046,-0.18084 -23.14617,-1.60507 -22.17501,-3.6362 -47.94009,-14.67485 -42.49499,-18.20636 0.61034,-0.39579 1.92492,-0.0297 7.86982,2.19249 40.80643,15.2525 72.20109,15.36596 87.50485,0.3163 2.95384,-2.90486 6.20955,-7.51138 7.49172,-10.60022 0.71585,-1.72452 0.72172,-2.19087 0.0647,-5.13527 -3.76046,-16.8517 -19.19876,-27.30417 -45.70481,-30.94438 -5.34867,-0.73454 -19.47382,-1.11763 -24.1635,-0.6553 l -3.48105,0.34317 -18.19724,-4.91719 -18.19719,-4.91719 -4.96411,3.50567 c -9.28523,6.5572 -16.31399,10.31301 -26.23238,14.01724 -26.70282,9.97273 -60.07066,9.9168 -92.14823,-0.15456 -12.37861,-3.88646 -16.76628,-5.96182 -26.41512,-12.49427 -17.31596,-11.72323 -29.89053,-25.41196 -35.54303,-38.69237 -2.60139,-6.11191 -3.51169,-10.50555 -3.50448,-16.91448 0.01,-8.12713 2.06477,-14.9272 6.76322,-22.37317 2.24385,-3.55599 2.25431,-3.59034 1.60319,-5.26228 -0.36048,-0.92564 -0.66864,-3.2095 -0.68482,-5.07525 -0.0482,-5.55166 2.05178,-9.86256 7.25319,-14.8899 3.62169,-3.50048 8.24015,-6.53857 8.24015,-5.42051 0,0.0911 -1.72786,5.11187 -3.83969,11.15743 -2.11183,6.04557 -3.77257,11.0444 -3.69053,11.10852 0.0821,0.0641 14.88346,-0.3087 32.89203,-0.82847 l 32.74285,-0.94502 42.73502,9.22195 42.73501,9.22196 21.16344,6.16337 c 11.63989,3.38984 21.55332,6.28432 22.02979,6.4322 0.95698,0.29693 0.9726,0.94495 -0.16826,-6.96806 -0.81377,-5.64465 -2.74132,-14.0057 -4.56696,-19.80988 -3.79225,-12.0567 -8.84098,-20.75647 -14.70498,-25.339 -2.26824,-1.77255 -2.49807,-2.79017 -0.5454,-2.4146 5.36435,1.03174 15.01114,8.70096 21.02069,16.71157 1.26018,1.67979 2.7548,3.2495 3.32131,3.48821 1.39001,0.58565 6.06255,0.48913 10.16883,-0.21011 2.60619,-0.4438 3.49664,-0.4721 3.94107,-0.12532 0.44468,0.34697 -0.77313,1.21115 -5.39879,3.83094 l -5.973,3.3829 0.29494,15.22301 c 0.1622,8.37267 0.319,15.24788 0.34844,15.27828 0.0294,0.0305 4.27419,0.24677 9.43278,0.48086 68.4618,3.10681 120.99743,13.75256 144.65691,29.31307 l 3.48716,2.29345 0,-4.41911 c -0.006,-17.06748 -5.22829,-34.25792 -13.77778,-45.35611 -1.41906,-1.8421 -2.49412,-3.41641 -2.38903,-3.49855 0.10502,-0.0821 3.3977,1.48498 7.31697,3.48243 l 7.12597,3.63173 0.91716,-0.88493 c 2.62604,-2.53386 6.11685,-9.42734 7.33621,-14.48718 1.05003,-4.35724 0.74422,-11.47183 -0.67599,-15.72535 -1.11843,-3.3497 -3.21352,-7.52017 -5.14219,-10.2359 l -1.26783,-1.78298 11.08099,-38.90328 c 7.79088,-27.35236 12.3593,-42.53037 15.3863,-51.11928 15.01324,-42.59882 20.56043,-57.72541 30.39368,-82.8809 6.06087,-15.50493 11.65461,-29.76597 12.43048,-31.69121 0.97974,-2.43106 1.23899,-3.5417 0.84871,-3.63555 -0.30908,-0.0743 -1.69577,-0.33382 -3.08155,-0.57667 l -2.5195,-0.44156 -15.68778,7.94289 c -8.62828,4.36859 -15.86618,7.9793 -16.08421,8.02381 -0.21804,0.0445 -2.97789,-1.18765 -6.13303,-2.73815 l -5.73654,-2.81908 -0.30643,-5.26226 c -0.16854,-2.89427 -0.44963,-9.710483 -0.62466,-15.147186 l -0.31823,-9.884903 -1.19134,-0.732344 c -3.113,-1.913574 -7.40211,-1.603393 -12.19313,0.881765 -5.2304,2.713056 -12.85467,9.542178 -18.73763,16.783418 l -2.53548,3.1209 -3.13613,-0.22886 c -4.16497,-0.30394 -7.54034,-1.64474 -10.98141,-4.362155 -5.11646,-4.04041 -9.54169,-10.918535 -12.94795,-20.124933 -1.64208,-4.438254 -4.31608,-14.156518 -4.60059,-16.72013 l -0.1453,-1.309174 -2.05137,1.451957 c -1.12826,0.798564 -5.65324,5.162283 -10.05552,9.697126 -9.51152,9.797998 -13.78543,13.501416 -16.59512,14.379953 -3.94688,1.234117 -4.66981,0.311596 -13.68236,-17.460472 -6.81413,-13.43694 -10.86655,-20.49678 -12.77963,-22.263606 l -1.11151,-1.026564 -13.70814,12.946539 -13.70814,12.94655 -6.49332,-0.07986 -6.49333,-0.07986 -3.63218,-8.457232 c -1.99768,-4.651482 -4.7773,-10.825264 -6.17697,-13.719515 -2.41548,-4.994863 -8.35332,-15.012916 -9.75645,-16.460711 -0.59051,-0.609309 -1.93708,0.678307 -14.05305,13.4376 -7.36997,7.761317 -13.59506,14.111491 -13.83348,14.111491 -1.15774,0 -6.20046,-2.35538 -7.01631,-3.27721 -0.50884,-0.57496 -6.27833,-8.595677 -12.8211,-17.823819 -11.09107,-15.643324 -11.99542,-16.794 -13.36745,-17.008438 -3.52375,-0.550742 -2.62734,-1.497746 -16.23785,17.154316 -6.97699,9.561371 -12.74915,17.447381 -12.82703,17.524476 -0.0779,0.07714 -1.55873,-0.159604 -3.29078,-0.525991 l -3.14916,-0.666158 -15.68516,-14.41372 -15.68515,-14.413724 -2.71092,1.92454 -2.7109,1.924539 -6.80318,14.894563 -6.80317,14.89456 -3.06474,0.109197 -3.06475,0.109197 -15.2643,-13.883141 -15.26431,-13.88314 -2.80747,0.587841 -2.80748,0.587842 -1.96452,5.498228 c -1.78866,5.006068 -6.19576,13.141612 -15.63976,28.87121 -0.28249,0.470499 -0.67287,0.808794 -0.8675,0.75176 -0.19464,-0.05709 -2.30165,-2.13344 -4.68226,-4.614238 -10.54234,-10.985967 -21.2515,-18.455205 -31.35467,-21.868685 -5.7088,-1.928786 -11.06117,-2.176065 -11.06117,-0.511016 0,0.397323 0.24335,0.839944 0.54078,0.983588 0.85816,0.414472 3.07751,4.583392 4.18673,7.864544 0.55909,1.653857 1.56431,5.457149 2.23381,8.45175 l 1.21726,5.444734 -2.40943,28.94802 c -1.9183,23.047359 -3.78255,40.708769 -9.14584,86.645139 l -6.73641,57.69713 -6.73164,36.3646 -6.73163,36.36461 -5.76853,20.39283 c -5.71048,20.18758 -5.84103,20.75796 -12.97011,56.66497 -3.96087,19.94969 -7.31802,36.79176 -7.46035,37.4268 -0.23051,1.02863 -0.0283,1.28404 1.85227,2.33942 1.98628,1.1147 2.29222,1.17176 5.17634,0.96555 6.29314,-0.44996 12.35416,1.20007 16.44949,4.4781 2.39067,1.91355 5.1632,5.64157 5.88076,7.90744 l 0.33516,1.05831 -1.86377,-0.60099 c -2.91462,-0.9398 -8.91737,-3.72704 -16.72924,-7.76779 -3.94333,-2.03974 -7.65237,-3.7086 -8.24231,-3.7086 -3.64492,0 -15.91471,4.4385 -24.02896,8.69231 -5.37035,2.81536 -14.02086,8.16995 -16.59406,10.27159 l -1.68345,1.37492 0,9.84606 c 0,10.4065 0.36772,12.9262 2.72604,18.67914 3.77828,9.21681 11.81375,15.36176 22.37448,17.11045 4.25847,0.70511 12.78279,0.70282 17.92852,-0.005 2.23799,-0.30781 4.21006,-0.43444 4.38236,-0.28142 0.17231,0.15301 0.64752,1.34684 1.05603,2.6529 0.54528,1.74332 0.59499,2.41226 0.18702,2.51601 -0.30565,0.0777 -4.93151,0.85809 -10.27971,1.73411 l -9.72397,1.59274 -0.48599,1.90525 c -0.86398,3.38714 -21.19047,93.23724 -21.19047,93.6692 0,0.22981 8.06255,5.79546 17.91677,12.36805 9.85424,6.57259 18.37236,12.26698 18.9292,12.65421 1.03236,0.71784 54.68802,13.42647 63.92085,15.13994 11.65954,2.16386 25.51429,3.99182 37.01956,4.88427 8.7189,0.67631 25.25721,0.68718 31.52112,0.0206 z M 158.06168,474.97479 c -1.12442,-2.31112 -2.00851,-8.29613 -1.74653,-11.82329 0.3476,-4.67967 1.03016,-6.21276 3.70086,-8.31222 l 2.20625,-1.73433 -6.98799,-1.55907 c -6.90236,-1.53992 -9.13917,-2.30164 -6.76009,-2.30201 0.64812,-1.2e-4 2.31706,-0.33841 3.70875,-0.75176 3.82277,-1.13545 9.63859,-1.04167 13.08206,0.2109 5.41848,1.97103 9.51652,5.54629 13.32986,11.62942 2.49003,3.97211 4.80993,9.48469 4.19169,9.96032 -0.2462,0.1894 -3.17451,-2.66677 -6.92015,-6.74973 -7.09758,-7.73676 -6.67948,-7.50924 -9.56581,-5.20628 -3.06401,2.44471 -6.04865,9.02868 -6.65498,14.68056 -0.30314,2.82565 -0.83922,3.48817 -1.58392,1.95749 z M 610.25366,342.79356 c -6.9216,-1.88101 -22.30415,-4.32139 -45.83466,-7.27143 l -13.31224,-1.66896 -5.57119,0.74431 c -23.63892,3.15812 -42.16872,-0.82989 -52.89579,-11.38435 -2.93297,-2.88579 -6.57861,-8.62556 -5.84347,-9.20006 0.12237,-0.0956 1.36922,0.59053 2.77083,1.52476 3.9492,2.63234 11.18747,6.27507 16.74177,8.42549 14.53313,5.62669 27.25745,6.77108 39.15125,3.52109 5.31967,-1.45359 20.05866,-0.94753 32.27107,1.10806 11.7612,1.97963 28.73726,7.2934 35.1896,11.01493 3.10655,1.79177 4.00269,2.92913 3.02974,3.84529 -0.72336,0.68109 -0.79637,0.67264 -5.69691,-0.65913 z M 398.56349,300.57899 c -8.78399,-2.28565 -19.11057,-4.05709 -30.89131,-5.29914 -7.52607,-0.79348 -30.76958,-1.1157 -39.46945,-0.54717 -6.38462,0.41725 -15.0277,1.26774 -17.56488,1.72841 -1.82454,0.33128 -0.52601,-1.02999 2.46002,-2.57887 7.39264,-3.83464 17.79439,-5.56415 33.46934,-5.56498 15.13677,-7.5e-4 29.61785,1.52323 49.23222,5.18135 6.95236,1.29662 7.18636,1.3146 11.54371,0.88678 19.28667,-1.89359 60.48222,-6.89876 66.01387,-8.02053 1.69538,-0.3438 2.58025,-0.75782 2.99909,-1.40324 0.55434,-0.85425 0.59459,-0.79795 0.60123,0.84097 0.006,1.48396 -0.23549,1.94638 -1.55613,2.98015 -4.47732,3.50475 -20.13697,7.32323 -41.45023,10.1073 -11.59522,1.51463 -19.02825,2.21476 -25.86314,2.43605 -5.40107,0.17488 -6.23146,0.10976 -9.52434,-0.74708 z m 182.29415,157.42954 c 14.28172,-4.10188 28.98978,-11.67697 37.80965,-19.47307 9.01596,-7.96945 14.76284,-17.02861 17.49783,-27.58303 0.55568,-2.14437 0.92945,-3.96208 0.83062,-4.03929 -0.12752,-0.0997 -45.72174,-14.91299 -57.94179,-18.82501 -0.4328,-0.13855 -0.60124,0.32461 -0.60124,1.65334 0,2.36253 -1.86305,5.3558 -4.24644,6.8225 -4.43706,2.73049 -10.87469,4.37717 -16.01654,4.0968 -9.63201,-0.52514 -13.23263,-7.19289 -9.0341,-16.72938 0.70571,-1.6029 0.78868,-2.17577 0.34608,-2.38954 -1.4954,-0.72224 -13.75172,-1.98718 -28.63029,-2.9548 -8.85588,-0.57596 -36.97344,-1.88123 -40.59412,-1.88445 l -3.18043,-0.003 -0.29691,1.97411 c -0.60769,4.04063 -4.6739,11.85764 -10.80221,20.76645 -2.96105,4.30454 -8.12238,11.3007 -9.87082,13.37979 l -0.82061,0.97585 9.50632,2.91238 c 5.22848,1.60179 13.40233,3.95016 18.1641,5.2186 l 8.65778,2.30623 6.01234,-0.0834 c 32.49333,-0.45041 55.67571,7.52277 67.26606,23.13505 2.08489,2.80837 4.9381,8.2623 5.87165,11.22369 l 0.61,1.93494 2.44682,-0.5613 c 1.3458,-0.30871 4.5031,-1.15187 7.01625,-1.87367 z M 391.34868,437.27992 c 31.86112,-4.44313 55.17971,-20.2143 68.45261,-46.29682 2.21865,-4.35994 5.49124,-12.49426 6.76225,-16.80836 l 0.68858,-2.33713 -2.9599,-1.2896 c -14.712,-6.40998 -49.74771,-14.29343 -94.51613,-21.26723 -6.70635,-1.04467 -12.60445,-1.89942 -13.10691,-1.89942 -0.78338,0 -0.91355,0.28604 -0.91355,2.00718 0,2.62765 -1.56109,7.32852 -3.23616,9.74495 -2.78898,4.02339 -8.25367,7.167 -12.4587,7.167 -2.77612,0 -8.56362,-2.25165 -11.47926,-4.46609 -1.22782,-0.93255 -2.8127,-2.66309 -3.52197,-3.84567 -1.79498,-2.99281 -1.79051,-7.72424 0.0109,-11.45309 l 1.22563,-2.53718 -6.07288,-0.0327 c -3.3401,-0.018 -14.2307,-0.2294 -24.20134,-0.46984 l -18.12845,-0.43715 -0.97996,4.13465 c -2.70553,11.4152 -2.63142,22.43798 0.22554,33.54924 6.4979,25.27161 28.28444,43.43892 63.22512,52.72199 6.11779,1.6254 16.01459,3.70927 18.999,4.00042 1.05817,0.1032 3.22261,0.33209 4.80987,0.50853 5.12785,0.57009 21.0231,0.16433 27.17577,-0.69369 z"
       id="path3347"
       inkscape:connector-curvature="0" />
  </g>
</svg>
